<svg width="153" height="79" viewBox="0 0 153 79" fill="none" xmlns="http://www.w3.org/2000/svg">
<path d="M17.2412 9.54266C17.1465 8.50099 16.7251 7.69133 15.977 7.11368C15.2384 6.52656 14.1825 6.233 12.8094 6.233C11.9003 6.233 11.1427 6.35137 10.5367 6.58811C9.93061 6.82486 9.47606 7.15156 9.17303 7.56823C8.87 7.97542 8.71375 8.44417 8.70428 8.97448C8.68534 9.41008 8.77057 9.79361 8.95996 10.125C9.15883 10.4565 9.44292 10.75 9.81223 11.0057C10.191 11.2519 10.6456 11.4697 11.1759 11.6591C11.7062 11.8485 12.3028 12.0143 12.9656 12.1563L15.4656 12.7245C16.905 13.037 18.174 13.4536 19.2725 13.9745C20.3804 14.4953 21.3084 15.1156 22.0566 15.8353C22.8141 16.555 23.387 17.3836 23.7753 18.3211C24.1636 19.2586 24.3624 20.3097 24.3719 21.4745C24.3624 23.3116 23.8984 24.8883 22.9798 26.2046C22.0613 27.5209 20.7403 28.5294 19.0168 29.2302C17.3028 29.9309 15.2336 30.2813 12.8094 30.2813C10.3757 30.2813 8.25447 29.9167 6.44576 29.1875C4.63704 28.4584 3.23079 27.3504 2.22701 25.8637C1.22322 24.3769 0.70712 22.4972 0.678711 20.2245H7.41167C7.46848 21.162 7.71943 21.9432 8.16451 22.5682C8.60958 23.1932 9.22038 23.6667 9.99689 23.9887C10.7829 24.3107 11.692 24.4716 12.7242 24.4716C13.6711 24.4716 14.4761 24.3438 15.1389 24.0881C15.8113 23.8324 16.3274 23.4773 16.6872 23.0228C17.0471 22.5682 17.2317 22.0474 17.2412 21.4603C17.2317 20.911 17.0613 20.4423 16.7298 20.054C16.3984 19.6563 15.887 19.3154 15.1958 19.0313C14.5139 18.7377 13.6427 18.4678 12.5821 18.2216L9.54235 17.5114C7.02341 16.9338 5.03951 16.001 3.59064 14.7131C2.14178 13.4158 1.42208 11.6639 1.43155 9.45743C1.42208 7.65819 1.90504 6.08148 2.88042 4.72732C3.85579 3.37315 5.20523 2.31728 6.92871 1.55971C8.6522 0.802129 10.6172 0.42334 12.8236 0.42334C15.0774 0.42334 17.0329 0.806863 18.6901 1.57391C20.3567 2.33148 21.6494 3.39683 22.5679 4.76993C23.4865 6.14304 23.9552 7.73395 23.9742 9.54266H17.2412Z" fill="black"/>
<path d="M26.9713 6.5313V0.821068H51.5594V6.5313H42.7384V29.912H35.8066V6.5313H26.9713Z" fill="black"/>
<path d="M72.5928 0.821068H79.6098V19.5853C79.6098 21.7538 79.0937 23.643 78.0615 25.2529C77.0293 26.8533 75.5899 28.0938 73.7433 28.9745C71.8967 29.8457 69.7519 30.2813 67.3087 30.2813C64.8371 30.2813 62.678 29.8457 60.8314 28.9745C58.9848 28.0938 57.5502 26.8533 56.5274 25.2529C55.5047 23.643 54.9933 21.7538 54.9933 19.5853V0.821068H62.0246V18.9745C62.0246 19.9783 62.2424 20.8732 62.678 21.6591C63.1231 22.4451 63.7433 23.0607 64.5388 23.5057C65.3343 23.9508 66.2575 24.1733 67.3087 24.1733C68.3598 24.1733 69.2784 23.9508 70.0644 23.5057C70.8598 23.0607 71.4801 22.4451 71.9252 21.6591C72.3702 20.8732 72.5928 19.9783 72.5928 18.9745V0.821068Z" fill="black"/>
<path d="M94.7696 29.912H84.0168V0.821068H94.7554C97.7194 0.821068 100.272 1.40345 102.412 2.56823C104.561 3.72353 106.218 5.3902 107.383 7.56823C108.548 9.73679 109.13 12.3315 109.13 15.3523C109.13 18.3826 108.548 20.9868 107.383 23.1648C106.228 25.3429 104.575 27.0142 102.426 28.179C100.276 29.3343 97.7242 29.912 94.7696 29.912ZM91.048 23.9177H94.4997C96.1285 23.9177 97.5064 23.643 98.6333 23.0938C99.7696 22.5351 100.627 21.6307 101.204 20.3807C101.791 19.1213 102.085 17.4451 102.085 15.3523C102.085 13.2595 101.791 11.5928 101.204 10.3523C100.617 9.10232 99.7507 8.2027 98.6048 7.65346C97.4685 7.09474 96.067 6.81539 94.4003 6.81539H91.048V23.9177Z" fill="black"/>
<path d="M120.267 0.821068V42.912H113.236V0.821068H120.267Z" fill="black"/>
<path d="M152.138 15.3665C152.138 18.5673 151.523 21.2803 150.292 23.5057C149.061 25.7311 147.394 27.4214 145.292 28.5767C143.199 29.7321 140.85 30.3097 138.246 30.3097C135.633 30.3097 133.279 29.7273 131.187 28.5625C129.094 27.3978 127.432 25.7074 126.201 23.4915C124.979 21.2661 124.368 18.5578 124.368 15.3665C124.368 12.1658 124.979 9.4527 126.201 7.22732C127.432 5.00194 129.094 3.3116 131.187 2.1563C133.279 1.00099 135.633 0.42334 138.246 0.42334C140.85 0.42334 143.199 1.00099 145.292 2.1563C147.394 3.3116 149.061 5.00194 150.292 7.22732C151.523 9.4527 152.138 12.1658 152.138 15.3665ZM144.951 15.3665C144.951 13.4726 144.681 11.8722 144.141 10.5654C143.611 9.25857 142.844 8.26898 141.84 7.59664C140.846 6.92429 139.648 6.58811 138.246 6.58811C136.854 6.58811 135.656 6.92429 134.652 7.59664C133.649 8.26898 132.877 9.25857 132.337 10.5654C131.807 11.8722 131.542 13.4726 131.542 15.3665C131.542 17.2605 131.807 18.8608 132.337 20.1677C132.877 21.4745 133.649 22.4641 134.652 23.1364C135.656 23.8088 136.854 24.1449 138.246 24.1449C139.648 24.1449 140.846 23.8088 141.84 23.1364C142.844 22.4641 143.611 21.4745 144.141 20.1677C144.681 18.8608 144.951 17.2605 144.951 15.3665Z" fill="black"/>
<path d="M98.0283 54.6447V49.1617L110.783 30.3833H115.998V37.8265H112.972L105.508 48.8776V49.1049H123.979V54.6447H98.0283ZM113.064 62.4742V52.9685L113.216 50.568V30.3833H120.254V62.4742H113.064Z" fill="black"/>
<path d="M121.975 78.1559L133.708 54.9172V54.7326H119.986V49.0649H140.981V54.7752L129.205 78.1559H121.975Z" fill="black"/>
</svg>
