<svg width="254" height="69" viewBox="0 0 254 69" fill="none" xmlns="http://www.w3.org/2000/svg">
<path d="M41.0781 28.8782C40.9834 27.8366 40.562 27.0269 39.8139 26.4493C39.0753 25.8621 38.0194 25.5686 36.6463 25.5686C35.7372 25.5686 34.9796 25.6869 34.3736 25.9237C33.7675 26.1604 33.313 26.4871 33.0099 26.9038C32.7069 27.311 32.5507 27.7797 32.5412 28.31C32.5223 28.7457 32.6075 29.1292 32.7969 29.4606C32.9957 29.7921 33.2798 30.0856 33.6491 30.3413C34.0279 30.5875 34.4825 30.8053 35.0128 30.9947C35.5431 31.1841 36.1397 31.3498 36.8026 31.4919L39.3026 32.06C40.742 32.3725 42.0109 32.7892 43.1094 33.31C44.2173 33.8309 45.1454 34.4511 45.8935 35.1708C46.651 35.8905 47.224 36.7191 47.6122 37.6566C48.0005 38.5941 48.1993 39.6453 48.2088 40.81C48.1993 42.6472 47.7353 44.2239 46.8168 45.5402C45.8982 46.8565 44.5772 47.865 42.8537 48.5657C41.1397 49.2665 39.0706 49.6169 36.6463 49.6169C34.2126 49.6169 32.0914 49.2523 30.2827 48.5231C28.474 47.794 27.0677 46.686 26.0639 45.1993C25.0601 43.7125 24.544 41.8328 24.5156 39.56H31.2486C31.3054 40.4975 31.5563 41.2788 32.0014 41.9038C32.4465 42.5288 33.0573 43.0023 33.8338 43.3243C34.6198 43.6462 35.5289 43.8072 36.5611 43.8072C37.508 43.8072 38.313 43.6794 38.9759 43.4237C39.6482 43.168 40.1643 42.8129 40.5241 42.3583C40.884 41.9038 41.0687 41.383 41.0781 40.7958C41.0687 40.2466 40.8982 39.7779 40.5668 39.3896C40.2353 38.9919 39.724 38.651 39.0327 38.3669C38.3509 38.0733 37.4796 37.8034 36.419 37.5572L33.3793 36.847C30.8603 36.2693 28.8764 35.3366 27.4276 34.0487C25.9787 32.7513 25.259 30.9994 25.2685 28.793C25.259 26.9938 25.742 25.4171 26.7173 24.0629C27.6927 22.7087 29.0421 21.6529 30.7656 20.8953C32.4891 20.1377 34.4541 19.7589 36.6605 19.7589C38.9143 19.7589 40.8698 20.1424 42.527 20.9095C44.1937 21.6671 45.4863 22.7324 46.4048 24.1055C47.3234 25.4786 47.7921 27.0695 47.8111 28.8782H41.0781Z" fill="black"/>
<path d="M50.8082 25.8669V20.1566H75.3963V25.8669H66.5753V49.2475H59.6435V25.8669H50.8082Z" fill="black"/>
<path d="M96.4297 20.1566H103.447V38.9208C103.447 41.0894 102.931 42.9786 101.898 44.5885C100.866 46.1888 99.4268 47.4294 97.5803 48.31C95.7337 49.1813 93.5888 49.6169 91.1456 49.6169C88.674 49.6169 86.5149 49.1813 84.6683 48.31C82.8217 47.4294 81.3871 46.1888 80.3643 44.5885C79.3416 42.9786 78.8303 41.0894 78.8303 38.9208V20.1566H85.8615V38.31C85.8615 39.3138 86.0793 40.2087 86.5149 40.9947C86.96 41.7807 87.5803 42.3962 88.3757 42.8413C89.1712 43.2864 90.0945 43.5089 91.1456 43.5089C92.1967 43.5089 93.1153 43.2864 93.9013 42.8413C94.6967 42.3962 95.317 41.7807 95.7621 40.9947C96.2071 40.2087 96.4297 39.3138 96.4297 38.31V20.1566Z" fill="black"/>
<path d="M118.607 49.2475H107.854V20.1566H118.592C121.556 20.1566 124.108 20.739 126.249 21.9038C128.398 23.0591 130.055 24.7258 131.22 26.9038C132.385 29.0724 132.967 31.6671 132.967 34.6879C132.967 37.7182 132.385 40.3224 131.22 42.5004C130.065 44.6784 128.412 46.3498 126.263 47.5146C124.113 48.6699 121.561 49.2475 118.607 49.2475ZM114.885 43.2532H118.337C119.965 43.2532 121.343 42.9786 122.47 42.4294C123.607 41.8707 124.464 40.9663 125.041 39.7163C125.628 38.4568 125.922 36.7807 125.922 34.6879C125.922 32.5951 125.628 30.9284 125.041 29.6879C124.454 28.4379 123.588 27.5383 122.442 26.989C121.305 26.4303 119.904 26.151 118.237 26.151H114.885V43.2532Z" fill="black"/>
<path d="M144.104 20.1566V49.2475H137.072V20.1566H144.104Z" fill="black"/>
<path d="M175.975 34.7021C175.975 37.9029 175.36 40.6159 174.129 42.8413C172.897 45.0667 171.231 46.757 169.129 47.9123C167.036 49.0676 164.687 49.6453 162.083 49.6453C159.469 49.6453 157.116 49.0629 155.023 47.8981C152.931 46.7333 151.269 45.043 150.038 42.8271C148.816 40.6017 148.205 37.8934 148.205 34.7021C148.205 31.5013 148.816 28.7883 150.038 26.5629C151.269 24.3375 152.931 22.6472 155.023 21.4919C157.116 20.3366 159.469 19.7589 162.083 19.7589C164.687 19.7589 167.036 20.3366 169.129 21.4919C171.231 22.6472 172.897 24.3375 174.129 26.5629C175.36 28.7883 175.975 31.5013 175.975 34.7021ZM168.788 34.7021C168.788 32.8082 168.518 31.2078 167.978 29.901C167.448 28.5941 166.681 27.6046 165.677 26.9322C164.683 26.2599 163.485 25.9237 162.083 25.9237C160.691 25.9237 159.493 26.2599 158.489 26.9322C157.486 27.6046 156.714 28.5941 156.174 29.901C155.644 31.2078 155.379 32.8082 155.379 34.7021C155.379 36.596 155.644 38.1964 156.174 39.5032C156.714 40.81 157.486 41.7996 158.489 42.472C159.493 43.1443 160.691 43.4805 162.083 43.4805C163.485 43.4805 164.683 43.1443 165.677 42.472C166.681 41.7996 167.448 40.81 167.978 39.5032C168.518 38.1964 168.788 36.596 168.788 34.7021Z" fill="black"/>
<path d="M179.668 44.418V38.935L191.586 20.1566H196.458V27.5998H193.631L186.657 38.651V38.8782H203.915V44.418H179.668ZM193.717 49.2475V42.7419L193.859 40.3413V20.1566H200.435V49.2475H193.717Z" fill="black"/>
<path d="M208.837 49.2475L220.57 26.0089V25.8243H206.849V20.1566H227.843V25.8669L216.067 49.2475H208.837Z" fill="black"/>
<path fill-rule="evenodd" clip-rule="evenodd" d="M248.258 5.16125H5.0459V63.3337H248.258V5.16125ZM0.0458984 0.161255V68.3337H253.258V0.161255H0.0458984Z" fill="black"/>
</svg>
